<svg width="15" height="16" viewBox="0 0 15 16" fill="none" xmlns="http://www.w3.org/2000/svg">
<path d="M7.5 13.0909C7.64834 13.0909 7.79334 13.0483 7.91668 12.9683C8.04002 12.8884 8.13614 12.7748 8.19291 12.642C8.24968 12.5091 8.26453 12.3628 8.23559 12.2218C8.20665 12.0807 8.13522 11.9511 8.03033 11.8494C7.92544 11.7477 7.7918 11.6784 7.64632 11.6503C7.50083 11.6223 7.35003 11.6367 7.21299 11.6917C7.07594 11.7468 6.95881 11.84 6.8764 11.9596C6.79399 12.0792 6.75 12.2198 6.75 12.3636C6.75 12.5565 6.82902 12.7415 6.96967 12.8779C7.11032 13.0143 7.30109 13.0909 7.5 13.0909ZM11.25 13.0909C11.3983 13.0909 11.5433 13.0483 11.6667 12.9683C11.79 12.8884 11.8861 12.7748 11.9429 12.642C11.9997 12.5091 12.0145 12.3628 11.9856 12.2218C11.9566 12.0807 11.8852 11.9511 11.7803 11.8494C11.6754 11.7477 11.5418 11.6784 11.3963 11.6503C11.2508 11.6223 11.1 11.6367 10.963 11.6917C10.8259 11.7468 10.7088 11.84 10.6264 11.9596C10.544 12.0792 10.5 12.2198 10.5 12.3636C10.5 12.5565 10.579 12.7415 10.7197 12.8779C10.8603 13.0143 11.0511 13.0909 11.25 13.0909ZM11.25 10.1818C11.3983 10.1818 11.5433 10.1392 11.6667 10.0593C11.79 9.97934 11.8861 9.86575 11.9429 9.73286C11.9997 9.59997 12.0145 9.45374 11.9856 9.31266C11.9566 9.17159 11.8852 9.042 11.7803 8.94029C11.6754 8.83858 11.5418 8.76931 11.3963 8.74125C11.2508 8.71319 11.1 8.72759 10.963 8.78263C10.8259 8.83768 10.7088 8.93089 10.6264 9.05049C10.544 9.17009 10.5 9.31071 10.5 9.45455C10.5 9.64743 10.579 9.83241 10.7197 9.96881C10.8603 10.1052 11.0511 10.1818 11.25 10.1818ZM7.5 10.1818C7.64834 10.1818 7.79334 10.1392 7.91668 10.0593C8.04002 9.97934 8.13614 9.86575 8.19291 9.73286C8.24968 9.59997 8.26453 9.45374 8.23559 9.31266C8.20665 9.17159 8.13522 9.042 8.03033 8.94029C7.92544 8.83858 7.7918 8.76931 7.64632 8.74125C7.50083 8.71319 7.35003 8.72759 7.21299 8.78263C7.07594 8.83768 6.95881 8.93089 6.8764 9.05049C6.79399 9.17009 6.75 9.31071 6.75 9.45455C6.75 9.64743 6.82902 9.83241 6.96967 9.96881C7.11032 10.1052 7.30109 10.1818 7.5 10.1818ZM12.75 1.45455H12V0.727273C12 0.534388 11.921 0.349403 11.7803 0.213013C11.6397 0.0766231 11.4489 0 11.25 0C11.0511 0 10.8603 0.0766231 10.7197 0.213013C10.579 0.349403 10.5 0.534388 10.5 0.727273V1.45455H4.5V0.727273C4.5 0.534388 4.42098 0.349403 4.28033 0.213013C4.13968 0.0766231 3.94891 0 3.75 0C3.55109 0 3.36032 0.0766231 3.21967 0.213013C3.07902 0.349403 3 0.534388 3 0.727273V1.45455H2.25C1.65326 1.45455 1.08097 1.68442 0.65901 2.09359C0.237053 2.50276 0 3.05771 0 3.63636V13.8182C0 14.3968 0.237053 14.9518 0.65901 15.361C1.08097 15.7701 1.65326 16 2.25 16H12.75C13.3467 16 13.919 15.7701 14.341 15.361C14.7629 14.9518 15 14.3968 15 13.8182V3.63636C15 3.05771 14.7629 2.50276 14.341 2.09359C13.919 1.68442 13.3467 1.45455 12.75 1.45455ZM13.5 13.8182C13.5 14.0111 13.421 14.1961 13.2803 14.3324C13.1397 14.4688 12.9489 14.5455 12.75 14.5455H2.25C2.05109 14.5455 1.86032 14.4688 1.71967 14.3324C1.57902 14.1961 1.5 14.0111 1.5 13.8182V7.27273H13.5V13.8182ZM13.5 5.81818H1.5V3.63636C1.5 3.44348 1.57902 3.25849 1.71967 3.1221C1.86032 2.98571 2.05109 2.90909 2.25 2.90909H3V3.63636C3 3.82925 3.07902 4.01423 3.21967 4.15062C3.36032 4.28701 3.55109 4.36364 3.75 4.36364C3.94891 4.36364 4.13968 4.28701 4.28033 4.15062C4.42098 4.01423 4.5 3.82925 4.5 3.63636V2.90909H10.5V3.63636C10.5 3.82925 10.579 4.01423 10.7197 4.15062C10.8603 4.28701 11.0511 4.36364 11.25 4.36364C11.4489 4.36364 11.6397 4.28701 11.7803 4.15062C11.921 4.01423 12 3.82925 12 3.63636V2.90909H12.75C12.9489 2.90909 13.1397 2.98571 13.2803 3.1221C13.421 3.25849 13.5 3.44348 13.5 3.63636V5.81818ZM3.75 10.1818C3.89834 10.1818 4.04334 10.1392 4.16668 10.0593C4.29001 9.97934 4.38614 9.86575 4.44291 9.73286C4.49968 9.59997 4.51453 9.45374 4.48559 9.31266C4.45665 9.17159 4.38522 9.042 4.28033 8.94029C4.17544 8.83858 4.0418 8.76931 3.89632 8.74125C3.75083 8.71319 3.60003 8.72759 3.46299 8.78263C3.32594 8.83768 3.20881 8.93089 3.1264 9.05049C3.04399 9.17009 3 9.31071 3 9.45455C3 9.64743 3.07902 9.83241 3.21967 9.96881C3.36032 10.1052 3.55109 10.1818 3.75 10.1818ZM3.75 13.0909C3.89834 13.0909 4.04334 13.0483 4.16668 12.9683C4.29001 12.8884 4.38614 12.7748 4.44291 12.642C4.49968 12.5091 4.51453 12.3628 4.48559 12.2218C4.45665 12.0807 4.38522 11.9511 4.28033 11.8494C4.17544 11.7477 4.0418 11.6784 3.89632 11.6503C3.75083 11.6223 3.60003 11.6367 3.46299 11.6917C3.32594 11.7468 3.20881 11.84 3.1264 11.9596C3.04399 12.0792 3 12.2198 3 12.3636C3 12.5565 3.07902 12.7415 3.21967 12.8779C3.36032 13.0143 3.55109 13.0909 3.75 13.0909Z" fill="#676767"/>
</svg>
