<svg width="137" height="57" viewBox="0 0 137 57" fill="none" xmlns="http://www.w3.org/2000/svg">
<path d="M26.4117 0.657406C23.3335 0.788704 18.8985 1.98497 16.1996 3.41465C15.689 3.69184 15.1784 3.91067 15.0909 3.91067C15.0034 3.91067 14.8429 3.9982 14.7554 4.10032C14.6678 4.21703 14.3031 4.45045 13.953 4.6401C13.5883 4.81516 13.1652 5.09235 13.0047 5.23823C12.8442 5.39871 12.6692 5.51542 12.6254 5.51542C12.5087 5.51542 10.9477 6.71168 10.2183 7.33899C9.40133 8.05384 7.11092 10.388 6.71702 10.8986C6.51278 11.1612 6.17724 11.5843 5.973 11.8469C5.60829 12.2845 4.5725 13.8309 4.33908 14.2686C4.28072 14.3853 4.07648 14.75 3.87224 15.071C2.73433 16.88 1.39218 20.1624 0.823219 22.5112C-0.24175 26.9899 -0.270927 30.7683 0.721099 35.1595C1.21711 37.3478 2.8948 41.4034 3.94518 42.9498C4.1786 43.3145 4.38284 43.6355 4.38284 43.6793C4.38284 43.723 4.84968 44.3941 5.43322 45.1673C9.21168 50.2733 13.8654 53.7454 19.3508 55.5398C21.3056 56.1817 22.6478 56.4589 25.1425 56.7944C29.6357 57.378 34.202 56.7215 39.0308 54.7958C43.7284 52.9284 48.1487 49.398 51.2415 45.0506C53.9987 41.1554 55.6327 36.8518 56.2454 31.7749C56.5226 29.4699 56.5226 28.0986 56.2308 25.7207C55.939 23.2844 55.1804 20.177 54.5677 18.8348C54.4072 18.4847 54.2759 18.1783 54.2759 18.12C54.2759 17.8574 52.6712 14.7354 52.0001 13.7142C51.5625 13.0577 51.2123 12.445 51.2123 12.3721C51.2123 12.3137 51.154 12.2262 51.081 12.197C51.0081 12.1678 50.5996 11.7302 50.1911 11.205C47.6527 8.01007 44.3557 5.36953 40.6064 3.4876C39.9499 3.16665 39.1621 2.80193 38.8558 2.68522C36.3903 1.79532 35.6609 1.57649 34.5813 1.35766C33.8956 1.22636 33.0787 1.0513 32.7723 0.963764C32.1304 0.803291 29.0084 0.555283 28.0164 0.584461C27.6517 0.599049 26.9369 0.628227 26.4117 0.657406ZM30.905 1.50354C32.1304 1.62025 33.1954 1.75155 33.2683 1.79532C33.3559 1.85367 34.9898 2.21839 35.8943 2.37886C36.011 2.39345 36.3173 2.49557 36.5508 2.5831C36.7988 2.68522 37.3531 2.88947 37.8054 3.03535C38.4765 3.26877 40.3 4.10032 41.2921 4.62551C41.613 4.80057 43.1302 9.61482 42.926 9.81906C42.8822 9.86282 42.5467 9.57105 42.1674 9.17716C41.3066 8.28725 40.1833 7.83501 38.7099 7.80583C38.1409 7.79124 37.6303 7.82042 37.572 7.87877C37.4115 8.02466 38.4181 9.48352 39.2497 10.3005C40.0666 11.1029 41.613 11.9928 42.5321 12.1678C42.853 12.2262 43.1594 12.2699 43.2032 12.2554C43.3782 12.2116 43.4658 13.0286 43.422 14.4874C43.3053 18.3096 41.8756 21.3003 39.8478 21.986C39.06 22.2486 37.4552 22.1902 36.434 21.8401C35.5441 21.5483 33.8956 20.7751 33.6622 20.5417C33.5893 20.4833 33.8519 19.7831 34.2458 18.9953L34.946 17.551L34.9314 16.0192C34.9168 14.6041 34.8731 14.3853 34.4062 13.2474C34.1145 12.5617 33.6768 11.5989 33.4288 11.1029C33.1662 10.6068 32.9328 9.87741 32.8744 9.48352L32.7869 8.75409L32.4514 9.06045C31.9262 9.5127 30.9779 11.0445 30.6132 12.0074C30.1464 13.3203 30.1755 15.319 30.7007 16.5882C31.1384 17.6823 31.153 17.7115 30.8612 17.4781C30.2193 16.9383 28.6875 14.2102 28.1623 12.6493C27.4183 10.4755 27.2432 9.5127 27.0536 6.79921C26.966 5.60295 27.1703 2.08709 27.3599 1.45978C27.4475 1.22636 28.1477 1.24095 30.905 1.50354ZM26.4554 2.55392C26.2804 4.28997 26.3241 8.2289 26.543 9.45434C26.6597 10.0525 26.8639 10.9716 27.0244 11.4676C27.1849 11.9782 27.2724 12.4304 27.2286 12.4742C27.1849 12.518 26.9077 12.3137 26.6013 12.0365C25.8427 11.3217 25.3613 10.9132 25.1133 10.7673C24.9966 10.709 24.8507 10.2567 24.7777 9.74612C24.7194 9.2501 24.5589 8.66656 24.4422 8.44773C24.3255 8.24349 24.1942 7.9663 24.1358 7.84959C24.0921 7.73289 23.7128 7.35358 23.3043 7.00346L22.5457 6.37614L22.429 6.93051C22.356 7.23687 22.3268 7.76206 22.356 8.0976C22.3852 8.49149 22.3414 8.72491 22.2393 8.72491C22.1518 8.72491 21.5099 8.46232 20.8388 8.14137C18.4317 7.01804 15.4118 6.53662 12.7713 6.85757C11.9252 6.97428 11.9106 6.95969 12.2169 6.71168C13.0047 6.06978 13.4861 5.73425 13.8509 5.54459C14.0551 5.44247 14.3323 5.26741 14.449 5.16529C14.9158 4.7714 18.7235 2.977 19.7738 2.65605C21.7141 2.05791 24.5881 1.50354 26.0907 1.44519L26.5721 1.4306L26.4554 2.55392ZM18.5338 8.03925C19.2195 8.24349 20.2407 8.63738 20.795 8.89997C21.8017 9.36681 21.8017 9.3814 21.3056 9.41058C19.1757 9.57105 17.9794 10.1984 16.8269 11.7448C16.6081 12.0511 16.258 12.4742 16.0392 12.693L15.6453 13.0723L16.4768 13.3057C17.6147 13.6267 18.4025 13.5975 19.5404 13.2182C21.1306 12.6784 22.181 11.4092 22.181 9.99412V9.58564L23.0271 10.1254C25.1716 11.4967 27.9726 14.0935 28.527 15.2169C29.2273 16.6174 31.1238 19.1995 32.5827 20.7168C33.1224 21.2711 32.8015 21.2274 31.153 20.4688C27.2724 18.6889 22.1956 17.7407 18.1983 18.0616C17.1333 18.1492 16.0829 18.2513 15.8495 18.295C15.5723 18.3534 15.4702 18.3388 15.5286 18.2367C15.7182 17.9303 15.2951 16.7778 14.8137 16.2526C14.201 15.5816 12.7275 14.75 11.5459 14.3999C11.0207 14.254 10.583 14.1519 10.5392 14.1811C10.4371 14.2978 11.1228 16.807 11.4146 17.4051C11.575 17.7261 11.9397 18.2221 12.2169 18.5139L12.7129 19.0391L11.575 19.4475C10.3642 19.8998 7.2568 21.3878 6.60031 21.8401C6.38148 21.986 5.84171 22.3507 5.40405 22.6279C4.96639 22.9196 4.47038 23.2698 4.3099 23.4157C4.14943 23.5615 3.68259 23.9408 3.2887 24.2472C2.88022 24.5682 2.20914 25.1517 1.80066 25.5602L1.02746 26.2896V25.7644C1.02746 24.9329 1.58183 22.3653 2.1362 20.6438C3.43458 16.6465 6.19183 12.1532 9.00744 9.43975C9.98487 8.49149 10.6705 8.08301 11.5896 7.90795C11.8376 7.84959 12.2753 7.76206 12.5525 7.68912C12.8297 7.63076 14.0113 7.60159 15.1784 7.61618C16.9582 7.65994 17.498 7.7183 18.5338 8.03925ZM23.2022 18.9953C26.5575 19.4475 29.6649 20.4688 33.1224 22.234C34.9898 23.1968 35.9818 24.0138 37.1343 25.5748C37.3677 25.8957 37.6157 26.1875 37.6595 26.2313C37.8929 26.4209 38.8412 28.0402 39.0892 28.6676C39.9645 30.9142 40.0958 35.743 39.3372 38.2377C38.6369 40.6011 36.9884 43.4167 35.2378 45.2986C34.6251 45.9697 33.9394 46.6407 33.7206 46.7866L33.3121 47.0784L29.9713 40.3676L26.6305 33.6569L20.7659 33.759C17.2062 33.8173 14.8867 33.8028 14.8867 33.7298C14.8867 33.6569 15.0617 33.3505 15.266 33.0441C15.6744 32.446 15.6744 32.0229 15.2805 31.95C15.1201 31.9208 14.8867 32.1397 14.5803 32.6357C14.3177 33.0441 14.0697 33.3505 14.0259 33.3067C13.9676 33.2776 13.7633 32.9274 13.5737 32.519C13.3548 32.0521 13.136 31.7749 12.9755 31.7749C12.5233 31.7749 12.5379 32.2272 13.0047 33.2484L13.4716 34.255L11.7939 37.9313C10.8602 39.9592 9.59098 42.7602 8.96367 44.1315C8.33636 45.5174 7.78199 46.6553 7.72364 46.6553C7.67987 46.6553 7.16927 46.0426 6.60031 45.2986C3.12822 40.7323 1.34841 36.1661 0.881574 30.71C0.648156 27.8798 0.662745 27.8214 2.09243 26.4063C3.58047 24.9329 4.79132 23.97 6.57114 22.8029C8.13212 21.7963 9.99946 20.8043 10.1308 20.9356C10.1745 20.9794 9.99946 21.2711 9.73687 21.5629C8.71566 22.7738 8.52601 24.3493 9.06579 27.3546C9.22626 28.3028 9.34297 29.2803 9.3138 29.5429C9.28462 29.8055 9.29921 30.0243 9.35756 30.0243C9.43051 30.0243 10.0432 29.4699 10.7289 28.7843C12.4941 27.0336 13.2819 25.2976 13.2819 23.1676C13.2819 22.482 12.961 20.5709 12.7713 20.0894C12.6984 19.8998 12.9026 19.7977 13.9238 19.5351C14.6095 19.3746 15.4118 19.185 15.7182 19.1412C16.0246 19.0974 16.5352 18.9953 16.8561 18.9369C17.8336 18.7473 21.5828 18.7765 23.2022 18.9953ZM26.6888 35.6117C26.966 36.1953 28.3957 39.0838 29.8692 42.0453C31.3426 45.0068 32.5389 47.5306 32.5097 47.6474C32.4368 47.9829 29.0376 50.215 27.214 51.1049C25.7844 51.8051 23.2605 52.7826 22.8958 52.7826C22.8229 52.7826 22.7062 52.6367 22.6332 52.447C22.5165 52.1407 22.181 51.3966 21.3786 49.646C21.1889 49.2375 20.5179 47.7641 19.876 46.3636C18.315 42.9498 18.1107 42.4976 17.1771 40.4552C16.7394 39.4923 16.2288 38.369 16.0537 37.9751C15.8641 37.5666 15.4702 36.6913 15.1638 36.0202C14.8429 35.3491 14.5949 34.7802 14.5949 34.751C14.5949 34.7218 16.2872 34.6781 18.3587 34.6489C20.4157 34.6343 23.0271 34.6051 24.1504 34.5905L26.1928 34.5614L26.6888 35.6117ZM14.8721 37.3332C15.2805 38.2815 15.6161 39.0984 15.6161 39.186C15.6161 39.4194 14.7699 39.6528 13.9092 39.6528C13.136 39.6528 12.2607 39.3464 12.2607 39.0692C12.2607 38.9234 13.2819 36.5746 13.6612 35.8306C13.7925 35.5826 13.9384 35.4513 14.0113 35.5096C14.0697 35.5826 14.4636 36.3995 14.8721 37.3332ZM17.7898 43.8251C18.1545 44.6129 18.6213 45.6633 18.8402 46.1447C19.059 46.6262 19.8322 48.3476 20.5762 49.9815C21.3056 51.6155 21.8892 52.9722 21.86 53.0014C21.7433 53.1035 19.6425 53.3661 18.8693 53.3661H18.0232L17.1625 51.134C14.8283 45.0943 13.9384 42.8623 13.8654 42.8623C13.8071 42.8623 13.5299 43.4021 13.2235 44.0586C11.5167 47.7641 10.7581 49.3688 10.6705 49.4563C10.5684 49.5585 9.85358 48.9312 9.02203 47.9975C8.64272 47.589 8.49683 47.3118 8.56978 47.1368C8.68649 46.7866 11.6917 40.178 11.7647 40.105C11.7939 40.0759 12.1878 40.1634 12.64 40.3093C13.5591 40.6011 14.8721 40.5573 15.5577 40.2072L15.9808 40.0029L16.5643 41.1846C16.8853 41.8411 17.4397 43.0228 17.7898 43.8251Z" fill="#007D6F"/>
<path d="M66.472 8.083C66.3407 8.41854 66.3699 46.9909 66.5012 47.1805C66.72 47.5161 67.0993 47.5161 67.3328 47.1951C67.5224 46.9179 67.5516 44.6567 67.5516 27.6463C67.5516 14.6625 67.5078 8.31642 67.4057 8.12677C67.216 7.79123 66.6033 7.76205 66.472 8.083Z" fill="#007D6F"/>
<path d="M84.8391 8.37479C84.1826 8.71033 83.8033 9.22093 83.3511 10.3734C82.9426 11.4092 82.9426 11.453 82.9572 14.7063C82.9572 17.624 82.9864 18.12 83.2781 19.2141C83.7158 20.8626 84.1972 21.665 84.9558 22.0152C86.2104 22.5695 87.2462 22.2632 88.0778 21.0523C88.5009 20.4396 88.6613 19.7539 88.9239 17.4343C89.595 11.2779 88.5884 8.14137 85.9187 8.14137C85.5685 8.14137 85.0871 8.24349 84.8391 8.37479ZM86.8523 9.36682C87.786 10.2421 88.0486 11.6718 87.9173 15.2606C87.7422 19.7247 87.2462 21.2711 85.9916 21.2711C85.1163 21.2711 84.5182 20.177 84.1826 17.9157C83.92 16.2672 84.0659 11.6426 84.3869 10.636C84.8829 9.1334 85.9916 8.56444 86.8523 9.36682Z" fill="#007D6F"/>
<path d="M99.4861 8.4477C98.8733 8.81241 98.2898 9.71691 97.9397 10.8694C97.5458 12.197 97.5895 17.4051 98.0126 19.0099C98.5524 21.0814 98.9025 21.6504 99.9237 22.0881C101.412 22.7154 102.885 21.7233 103.367 19.7831C103.921 17.5364 104.023 12.2116 103.542 10.6943C103.206 9.67314 102.608 8.79782 101.981 8.4477C101.251 8.03922 100.186 8.03922 99.4861 8.4477ZM101.543 9.30843C102.287 9.83362 102.593 10.884 102.681 13.1015C102.754 15.3773 102.52 18.7035 102.185 19.8122C101.631 21.6796 100.128 21.7963 99.4423 20.0311C98.7858 18.3096 98.5378 13.6267 99.0046 11.38C99.2381 10.2275 99.6319 9.42514 100.055 9.16254C100.449 8.92912 101.105 9.00207 101.543 9.30843Z" fill="#007D6F"/>
<path d="M123.718 8.27263C123.266 8.40393 122.77 9.11877 122.492 10.0962C122.069 11.5551 121.705 15.0126 121.617 18.4117C121.529 21.8401 121.588 22.2923 122.084 22.2923C122.638 22.2923 122.697 22.0297 122.697 19.3454V16.7486H123.834C124.447 16.7486 125.104 16.7049 125.279 16.6611L125.614 16.5736L125.643 19.3016C125.687 21.7233 125.716 22.0589 125.95 22.2048C126.125 22.3215 126.271 22.3215 126.46 22.2048C126.694 22.0443 126.708 21.7088 126.679 17.9741C126.621 12.2407 126.271 9.92115 125.279 8.827C124.783 8.28722 124.316 8.11216 123.718 8.27263ZM124.564 9.30842C124.724 9.48349 124.943 10.0816 125.075 10.6652C125.293 11.6572 125.643 15.4502 125.527 15.5669C125.498 15.5961 124.885 15.6545 124.141 15.6982L122.813 15.7712L122.915 14.4728C123.047 12.62 123.557 9.73149 123.805 9.3376C124.068 8.94371 124.214 8.92912 124.564 9.30842Z" fill="#007D6F"/>
<path d="M90.266 8.37475C90.0326 8.60817 90.2223 9.14795 91.4185 11.8468L92.6586 14.6479L91.6957 17.1279C91.1559 18.4847 90.5286 20.0748 90.2952 20.6584C89.8284 21.8546 89.8867 22.2923 90.514 22.2923C90.8934 22.2923 91.0246 22.0005 92.3814 18.2804C92.7023 17.3905 93.0233 16.5006 93.1108 16.2672C93.1838 16.0484 93.3005 15.8733 93.3734 15.8733C93.4318 15.8733 93.9424 17.1717 94.5259 18.7473C95.7076 21.9859 95.8827 22.3361 96.3349 22.2631C96.9185 22.1756 96.7872 21.5775 95.5034 18.3242C94.8323 16.6027 94.2341 15.0418 94.1758 14.8375C94.1174 14.5895 94.4238 13.6996 95.2699 11.6718C96.3933 9.00206 96.4516 8.827 96.2182 8.57899C95.7514 8.06839 95.5909 8.28722 94.6134 10.6214C94.3946 11.1466 94.132 11.7593 94.0299 12.0073C93.9132 12.2407 93.7235 12.7076 93.5922 13.0139C93.4755 13.3349 93.3442 13.5537 93.3005 13.5099C93.2567 13.4662 92.819 12.4887 92.3084 11.3362C91.7978 10.1837 91.2872 9.03124 91.1705 8.79782C90.9809 8.37475 90.4849 8.15592 90.266 8.37475Z" fill="#007D6F"/>
<path d="M106.912 8.62284C106.459 9.04591 106.416 9.39603 106.211 13.9769C106.051 17.3614 105.73 20.3667 105.467 20.8627C105.394 21.0086 105.234 21.1253 105.132 21.1253C104.68 21.1253 104.461 21.6505 104.461 22.6863C104.461 23.5324 104.519 23.7512 104.767 23.9847C105.263 24.4223 105.54 24.116 105.599 23.0364L105.642 22.1465H107.276C108.181 22.1465 109.348 22.1027 109.902 22.0444L110.88 21.9568V22.9051C110.88 23.7512 110.909 23.8679 111.244 24.043C111.857 24.364 112.047 24.0576 112.047 22.7154C112.047 21.4754 111.901 21.169 111.186 21.0378L110.792 20.9502L110.617 15.1731C110.53 11.9782 110.413 9.23556 110.355 9.04591C110.209 8.53531 109.567 8.2873 108.356 8.2873C107.422 8.2873 107.218 8.33106 106.912 8.62284ZM109.319 9.41062C109.363 9.48357 109.435 12.1095 109.494 15.2461L109.596 20.9794H108.122C107.32 20.9794 106.649 20.921 106.649 20.8481C106.649 20.7752 106.751 20.2354 106.868 19.6518C107.101 18.441 107.32 15.567 107.466 11.8177L107.568 9.3085H108.414C108.881 9.3085 109.29 9.35227 109.319 9.41062Z" fill="#007D6F"/>
<path d="M113.652 8.57899C113.549 8.76865 113.52 11.0736 113.535 15.4502C113.579 21.5483 113.593 22.0589 113.841 22.2048C114.016 22.3215 114.162 22.3215 114.352 22.2048C114.571 22.0589 114.6 21.6942 114.644 18.6597L114.673 15.2752L116.394 15.3189L118.101 15.3627L118.057 18.5576C118.014 21.4024 118.043 21.7671 118.262 22.0151C118.553 22.3507 118.991 22.3798 119.093 22.0881C119.224 21.7671 119.239 8.84159 119.122 8.53523C118.976 8.19969 118.51 8.21428 118.32 8.56441C118.232 8.73947 118.174 9.96491 118.174 11.5551V14.2686H116.423H114.673V11.5551C114.673 9.96491 114.614 8.73947 114.527 8.56441C114.323 8.19969 113.856 8.19969 113.652 8.57899Z" fill="#007D6F"/>
<path d="M130.691 8.49146C129.495 9.01665 128.926 10.2275 128.926 12.2261C128.926 13.6558 129.203 14.3707 130.049 15.1147C130.341 15.3627 130.574 15.6107 130.574 15.6691C130.574 15.7128 130.458 15.9317 130.297 16.1359C129.334 17.5072 128.474 20.1769 128.561 21.5337C128.605 22.1902 128.62 22.2194 129.043 22.2194C129.466 22.2194 129.48 22.1902 129.655 21.1982C129.933 19.6518 130.239 18.4847 130.574 17.7261C130.925 16.9237 131.931 15.8149 132.208 15.9025C132.354 15.9608 132.413 16.6757 132.471 18.9077C132.529 21.3586 132.588 21.8838 132.777 22.0881C132.967 22.2777 133.084 22.2923 133.332 22.161C133.623 22.0005 133.638 21.8838 133.638 19.6955C133.638 17.1717 133.375 9.41055 133.273 8.91453C133.142 8.34558 131.596 8.08298 130.691 8.49146ZM132.252 9.3376C132.281 9.43972 132.34 10.7527 132.398 12.2553L132.5 14.998H132.15C131.625 14.9834 130.618 14.4728 130.37 14.0935C129.962 13.4662 129.845 12.4012 130.064 11.1612C130.224 10.2129 130.341 9.93574 130.706 9.58561C131.187 9.13336 132.135 8.98748 132.252 9.3376Z" fill="#007D6F"/>
<path d="M76.0567 8.71029C75.7796 8.97289 75.765 9.2063 75.6628 15.3481C75.5607 21.913 75.5899 22.2923 76.1297 22.2923C76.7278 22.2923 76.7424 22.1902 76.7424 15.6982V9.45431H78.245H79.7331L79.6455 15.6837C79.5726 19.8268 79.6018 21.9859 79.6893 22.1026C79.9081 22.3652 80.3166 22.3361 80.55 22.0443C80.7105 21.8546 80.7543 20.6438 80.7689 15.6691C80.7689 12.2407 80.7105 9.35219 80.6376 9.11877C80.4479 8.53523 80.0394 8.43311 78.07 8.43311C76.5965 8.43311 76.3193 8.47687 76.0567 8.71029Z" fill="#007D6F"/>
<path d="M84.9412 31.5999C84.3868 31.7749 83.6428 32.4606 83.3218 33.1317C82.3444 35.1595 82.3298 41.1992 83.2927 43.7522C83.7157 44.8317 83.9929 45.1819 84.664 45.5028C86.1083 46.1447 87.4212 45.5903 88.1069 44.0294C88.5883 42.9206 88.8947 40.0029 88.8218 37.1435C88.7634 34.9261 88.7196 34.5176 88.4133 33.7444C87.7568 32.0667 86.3563 31.206 84.9412 31.5999ZM86.6481 33.0587C86.9398 33.3651 87.2754 33.8757 87.3775 34.1966C87.6984 35.1303 87.7568 39.2151 87.4796 41.2283C87.1441 43.6501 87.1149 43.7084 86.6335 44.2628C85.8457 45.1673 84.985 44.8609 84.4743 43.4896C83.5553 41.0387 83.5115 35.2616 84.3868 33.5693C84.6932 32.9712 85.2913 32.5044 85.7581 32.5044C85.9916 32.5044 86.3125 32.7086 86.6481 33.0587Z" fill="#007D6F"/>
<path d="M75.8817 31.7603C75.692 31.877 75.6628 32.8837 75.7066 38.5878C75.7358 44.8171 75.7649 45.284 76.0129 45.5466C76.188 45.7216 76.3777 45.78 76.5819 45.7071C76.8883 45.6195 76.8883 45.5466 76.8883 42.0453C76.8883 40.0904 76.9174 38.4857 76.9612 38.4857C77.18 38.4857 78.2304 39.113 78.5076 39.4048C79.0474 39.9591 79.4705 41.1116 79.806 42.8623C79.9811 43.7814 80.1561 44.7588 80.2145 45.036C80.3312 45.6487 80.7105 45.9259 81.0898 45.6925C81.3961 45.4882 81.367 44.4233 80.9731 42.483C80.4917 40.1488 79.7185 38.6753 78.6973 38.1064L78.2304 37.8584L78.8869 36.9101C79.6455 35.8014 80.6084 33.934 80.9877 32.8399C81.2357 32.1105 81.2357 32.0813 80.9731 31.8479C80.55 31.4686 80.1707 31.6874 79.8789 32.4752C79.4267 33.7006 78.2012 35.9764 77.5739 36.7642L76.9612 37.5228L76.8883 34.7802C76.8153 32.2855 76.7861 32.0229 76.5381 31.8333C76.2026 31.5999 76.1588 31.5853 75.8817 31.7603Z" fill="#007D6F"/>
<path d="M91.1414 31.8916C90.9225 32.1396 90.8934 32.7669 90.8934 38.6899C90.8934 42.906 90.9517 45.3132 91.0393 45.5028C91.1997 45.7946 91.827 45.8821 91.9875 45.6195C92.0459 45.5466 92.0751 43.1249 92.0605 40.2655C92.0605 36.9685 92.1042 35.1157 92.1918 35.2032C92.2647 35.2908 92.6294 36.1369 93.0087 37.0998C93.8403 39.2297 94.0153 39.5069 94.453 39.5069C94.8907 39.5069 95.022 39.2881 96.0869 36.808L96.9477 34.7656L97.0644 40.0904C97.1519 43.3291 97.254 45.4882 97.3415 45.5903C97.4291 45.6925 97.6041 45.78 97.75 45.78C98.3627 45.78 98.3773 45.6195 98.2752 39.682C98.1585 32.7378 98.1002 31.9646 97.7063 31.7603C97.2394 31.5123 96.9914 31.9062 95.7806 34.8677C95.1532 36.3849 94.6135 37.6104 94.5551 37.6104C94.5114 37.6104 94.2488 37.0706 93.9716 36.3995C93.6944 35.743 93.2567 34.7072 92.9941 34.1091C91.8708 31.5999 91.652 31.3227 91.1414 31.8916Z" fill="#007D6F"/>
<path d="M109.742 31.9646C108.75 33.015 108.137 37.0852 108.108 42.7602C108.079 45.6487 108.108 45.7654 108.721 45.78C109.188 45.78 109.275 45.2694 109.275 42.731V40.2509L110.661 40.2071L112.047 40.1634V42.5997C112.047 45.2694 112.164 45.78 112.733 45.78C113.389 45.78 113.433 45.4299 113.243 40.4114C113.024 34.6343 112.733 33.0295 111.697 31.9938C111.201 31.4977 110.194 31.4831 109.742 31.9646ZM111.244 33.1754C111.536 33.8173 111.843 35.568 111.974 37.5666L112.076 39.0401L110.967 39.1422C109.348 39.3027 109.377 39.3172 109.494 37.7271C109.611 36.2245 110.034 33.6714 110.282 33.0441C110.5 32.4752 110.938 32.5335 111.244 33.1754Z" fill="#007D6F"/>
<path d="M115.782 31.8479C115.592 32.0375 115.563 32.9712 115.592 38.8066C115.621 45.036 115.636 45.5466 115.884 45.6925C116.059 45.8092 116.205 45.8092 116.394 45.6925C116.613 45.5466 116.657 45.1673 116.715 42.1912L116.788 38.8504L118.48 38.8066L120.158 38.7629V42.0307C120.144 44.5983 120.187 45.3423 120.348 45.532C120.61 45.8675 121.048 45.8384 121.238 45.5028C121.325 45.3132 121.384 42.8915 121.384 38.6462C121.384 32.8837 121.354 32.0667 121.15 31.8625C120.888 31.5999 120.815 31.5853 120.508 31.7749C120.333 31.877 120.275 32.446 120.216 34.7948L120.144 37.6833H118.466H116.788L116.744 34.8385C116.715 32.3731 116.686 31.9646 116.467 31.8041C116.146 31.5707 116.059 31.5853 115.782 31.8479Z" fill="#007D6F"/>
<path d="M123.966 31.8917C123.747 32.1397 123.718 32.8107 123.718 38.5295C123.718 42.3517 123.776 45.036 123.864 45.2694C124.053 45.78 124.403 45.8821 124.754 45.532C124.972 45.3132 127.89 37.7125 128.649 35.3492C128.707 35.1887 128.78 37.4499 128.824 40.3822L128.897 45.7071L129.291 45.7508C129.553 45.78 129.728 45.7071 129.83 45.5028C129.933 45.3132 129.976 43.1103 129.947 38.7337C129.918 31.8917 129.903 31.775 129.247 31.775C129.101 31.775 128.882 31.9208 128.765 32.0959C128.649 32.2856 127.817 34.4301 126.927 36.881C126.023 39.3319 125.206 41.5639 125.104 41.8411C124.929 42.2788 124.899 41.6514 124.899 37.1436C124.885 32.1397 124.87 31.9208 124.608 31.775C124.243 31.5853 124.243 31.5853 123.966 31.8917Z" fill="#007D6F"/>
<path d="M134.003 31.9062C132.821 32.4314 132.179 33.7152 132.179 35.5242C132.179 36.9831 132.427 37.7125 133.186 38.5003L133.857 39.2005L133.521 39.6819C132.69 40.8636 132.194 42.2641 131.873 44.3065C131.756 45.1089 131.756 45.4007 131.887 45.5612C132.077 45.7946 132.704 45.8529 132.821 45.6633C132.865 45.5903 132.996 44.9047 133.113 44.1315C133.39 42.4246 133.769 41.4034 134.484 40.3676C134.893 39.7695 135.126 39.5798 135.389 39.5798H135.753L135.841 42.5705C135.885 44.219 135.928 45.5758 135.943 45.5758C136.147 45.7362 136.497 45.7508 136.731 45.6195C137.037 45.459 137.037 45.4153 136.95 40.8344C136.891 38.296 136.804 35.2762 136.745 34.1237L136.658 32.0375L136.176 31.8333C135.52 31.5561 134.703 31.5853 134.003 31.9062ZM135.535 33.4818C135.535 33.8757 135.578 35.1157 135.637 36.2536L135.724 38.3398H135.33C134.105 38.3398 133.361 37.3915 133.346 35.8306C133.346 33.8611 133.901 32.7961 134.951 32.7961H135.535V33.4818Z" fill="#007D6F"/>
<path d="M101.047 32.1396C100.93 32.2709 100.784 32.5773 100.741 32.8399C100.697 33.1025 100.682 36.064 100.697 39.4194C100.741 45.0506 100.755 45.5466 101.003 45.6925C101.178 45.8092 101.324 45.8092 101.514 45.6925C101.747 45.5466 101.762 45.0506 101.806 39.2297L101.835 32.942H103.221H104.607V39.1859C104.607 45.6779 104.621 45.78 105.219 45.78C105.788 45.78 105.818 45.3715 105.818 38.792L105.803 32.446L105.482 32.1834C105.205 31.9646 104.869 31.9208 103.221 31.9208C101.66 31.9208 101.222 31.9646 101.047 32.1396Z" fill="#007D6F"/>
</svg>
