<svg width="50" height="50" viewBox="0 0 50 50" fill="none" xmlns="http://www.w3.org/2000/svg">
<circle cx="25" cy="25" r="25" fill="white" fill-opacity="0.56"/>
<path d="M17 24C16.4477 24 16 24.4477 16 25C16 25.5523 16.4477 26 17 26L17 24ZM33.7071 25.7071C34.0976 25.3166 34.0976 24.6834 33.7071 24.2929L27.3431 17.9289C26.9526 17.5384 26.3195 17.5384 25.9289 17.9289C25.5384 18.3195 25.5384 18.9526 25.9289 19.3431L31.5858 25L25.9289 30.6569C25.5384 31.0474 25.5384 31.6805 25.9289 32.0711C26.3195 32.4616 26.9526 32.4616 27.3431 32.0711L33.7071 25.7071ZM17 26L33 26L33 24L17 24L17 26Z" fill="#007D6F"/>
</svg>
