<svg width="86" height="76" viewBox="0 0 86 76" fill="none" xmlns="http://www.w3.org/2000/svg">
<path d="M72.7749 49.5652C69.8414 49.568 66.9916 50.5426 64.6721 52.3365C62.3525 54.1303 60.6941 56.6421 59.9566 59.4783H19.8477C16.3384 59.4783 12.9728 58.0857 10.4914 55.607C8.00996 53.1282 6.6159 49.7663 6.6159 46.2609C6.6159 42.7554 8.00996 39.3935 10.4914 36.9148C12.9728 34.436 16.3384 33.0435 19.8477 33.0435H59.5431C63.9297 33.0435 68.1366 31.3028 71.2384 28.2044C74.3402 25.1059 76.0828 20.9036 76.0828 16.5217C76.0828 12.1399 74.3402 7.93753 71.2384 4.83911C68.1366 1.74068 63.9297 0 59.5431 0H19.8477C18.9704 0 18.129 0.348136 17.5086 0.967822C16.8883 1.58751 16.5397 2.42798 16.5397 3.30435C16.5397 4.18072 16.8883 5.02119 17.5086 5.64087C18.129 6.26056 18.9704 6.6087 19.8477 6.6087H59.5431C62.175 6.6087 64.6992 7.6531 66.5603 9.51216C68.4214 11.3712 69.4669 13.8926 69.4669 16.5217C69.4669 19.1508 68.4214 21.6723 66.5603 23.5313C64.6992 25.3904 62.175 26.4348 59.5431 26.4348H19.8477C14.5838 26.4348 9.53542 28.5236 5.81325 32.2417C2.09109 35.9598 0 41.0027 0 46.2609C0 51.5191 2.09109 56.5619 5.81325 60.28C9.53542 63.9981 14.5838 66.087 19.8477 66.087H59.9566C60.5752 68.4803 61.8533 70.6524 63.6457 72.3565C65.4381 74.0607 67.6729 75.2287 70.0965 75.7278C72.52 76.2269 75.0351 76.0371 77.3561 75.18C79.6771 74.323 81.711 72.833 83.2268 70.8792C84.7426 68.9254 85.6796 66.5862 85.9313 64.1273C86.1831 61.6683 85.7395 59.188 84.6509 56.9682C83.5624 54.7484 81.8725 52.878 79.7732 51.5694C77.674 50.2608 75.2494 49.5665 72.7749 49.5652ZM72.7749 69.3913C71.4664 69.3913 70.1872 69.0037 69.0993 68.2775C68.0113 67.5514 67.1633 66.5192 66.6626 65.3116C66.1618 64.1041 66.0308 62.7753 66.2861 61.4933C66.5414 60.2114 67.1715 59.0338 68.0967 58.1096C69.022 57.1853 70.2008 56.5559 71.4842 56.3009C72.7675 56.0459 74.0978 56.1768 75.3067 56.677C76.5156 57.1772 77.5488 58.0242 78.2758 59.111C79.0027 60.1978 79.3908 61.4755 79.3908 62.7826C79.3908 64.5353 78.6937 66.2163 77.453 67.4557C76.2123 68.695 74.5295 69.3913 72.7749 69.3913Z" fill="white"/>
</svg>
